{
    "asset" : {
        "generator" : "Khronos glTF Blender I/O v1.3.48",
        "version" : "2.0"
    },
    "scene" : 0,
    "scenes" : [
        {
            "name" : "Scene",
            "nodes" : [
                0,
                1,
                2
            ]
        }
    ],
    "nodes" : [
        {
            "mesh" : 0,
            "name" : "telo_Cylinder"
        },
        {
            "name" : "Light",
            "rotation" : [
                0.16907575726509094,
                0.7558803558349609,
                -0.27217137813568115,
                0.570947527885437
            ],
            "translation" : [
                4.076245307922363,
                5.903861999511719,
                -1.0054539442062378
            ]
        },
        {
            "name" : "Camera",
            "rotation" : [
                0.483536034822464,
                0.33687159419059753,
                -0.20870360732078552,
                0.7804827094078064
            ],
            "translation" : [
                7.358891487121582,
                4.958309173583984,
                6.925790786743164
            ]
        }
    ],
    "materials" : [
        {
            "emissiveFactor" : [
                0,
                0,
                0
            ],
            "name" : "android",
            "pbrMetallicRoughness" : {
                "baseColorFactor" : [
                    0.2969900071620941,
                    0.45176899433135986,
                    0.03273199871182442,
                    1
                ],
                "metallicFactor" : 0,
                "roughnessFactor" : 0.9039215445518494
            }
        },
        {
            "emissiveFactor" : [
                0,
                0,
                0
            ],
            "name" : "oko",
            "pbrMetallicRoughness" : {
                "baseColorFactor" : [
                    0,
                    0,
                    0,
                    1
                ],
                "metallicFactor" : 0,
                "roughnessFactor" : 0.9039215445518494
            }
        }
    ],
    "meshes" : [
        {
            "name" : "telo_Cylinder-Mesh",
            "primitives" : [
                {
                    "attributes" : {
                        "POSITION" : 0,
                        "NORMAL" : 1
                    },
                    "indices" : 2,
                    "material" : 0
                },
                {
                    "attributes" : {
                        "POSITION" : 3,
                        "NORMAL" : 4
                    },
                    "indices" : 5,
                    "material" : 1
                }
            ]
        }
    ],
    "accessors" : [
        {
            "bufferView" : 0,
            "componentType" : 5126,
            "count" : 29928,
            "max" : [
                1.497187614440918,
                1.9014099836349487,
                0.9808098077774048
            ],
            "min" : [
                -1.5215014219284058,
                -1.6676982641220093,
                -0.9806808233261108
            ],
            "type" : "VEC3"
        },
        {
            "bufferView" : 1,
            "componentType" : 5126,
            "count" : 29928,
            "type" : "VEC3"
        },
        {
            "bufferView" : 2,
            "componentType" : 5123,
            "count" : 29928,
            "type" : "SCALAR"
        },
        {
            "bufferView" : 3,
            "componentType" : 5126,
            "count" : 780,
            "max" : [
                0.49983298778533936,
                1.2954267263412476,
                0.8240296840667725
            ],
            "min" : [
                -0.510208010673523,
                1.1382695436477661,
                0.7046532034873962
            ],
            "type" : "VEC3"
        },
        {
            "bufferView" : 4,
            "componentType" : 5126,
            "count" : 780,
            "type" : "VEC3"
        },
        {
            "bufferView" : 5,
            "componentType" : 5123,
            "count" : 780,
            "type" : "SCALAR"
        }
    ],
    "bufferViews" : [
        {
            "buffer" : 0,
            "byteLength" : 359136,
            "byteOffset" : 0
        },
        {
            "buffer" : 0,
            "byteLength" : 359136,
            "byteOffset" : 359136
        },
        {
            "buffer" : 0,
            "byteLength" : 59856,
            "byteOffset" : 718272
        },
        {
            "buffer" : 0,
            "byteLength" : 9360,
            "byteOffset" : 778128
        },
        {
            "buffer" : 0,
            "byteLength" : 9360,
            "byteOffset" : 787488
        },
        {
            "buffer" : 0,
            "byteLength" : 1560,
            "byteOffset" : 796848
        }
    ],
    "buffers" : [
        {
            "byteLength" : 798408,
            "uri" : "data:application/octet-stream;base64,"
        }
    ]
}
