{
    "asset" : {
        "generator" : "Khronos glTF Blender I/O v1.3.48",
        "version" : "2.0"
    },
    "extensionsUsed" : [
        "KHR_materials_clearcoat"
    ],
    "scene" : 0,
    "scenes" : [
        {
            "name" : "Scene",
            "nodes" : [
                0,
                1,
                2
            ]
        }
    ],
    "nodes" : [
        {
            "mesh" : 0,
            "name" : "16943_Boat_Mine",
            "translation" : [
                0.1773328185081482,
                0,
                -30.842317581176758
            ]
        },
        {
            "name" : "Light",
            "rotation" : [
                0.16907575726509094,
                0.7558803558349609,
                -0.27217137813568115,
                0.570947527885437
            ],
            "translation" : [
                4.076245307922363,
                5.903861999511719,
                -1.0054539442062378
            ]
        },
        {
            "name" : "Camera",
            "rotation" : [
                0.483536034822464,
                0.33687159419059753,
                -0.20870360732078552,
                0.7804827094078064
            ],
            "translation" : [
                7.358891487121582,
                4.958309173583984,
                6.925790786743164
            ]
        }
    ],
    "materials" : [
        {
            "emissiveFactor" : [
                0,
                0,
                0
            ],
            "extensions" : {
                "KHR_materials_clearcoat" : {
                    "clearcoatFactor" : 0.5,
                    "clearcoatRoughnessFactor" : 0.8254545331001282
                }
            },
            "name" : "default",
            "pbrMetallicRoughness" : {
                "baseColorFactor" : [
                    0.3918592631816864,
                    0.03145065903663635,
                    0.007182219997048378,
                    1
                ],
                "metallicFactor" : 0.6136363744735718,
                "roughnessFactor" : 0.23181816935539246
            }
        }
    ],
    "meshes" : [
        {
            "name" : "16943_Boat_Mine_1",
            "primitives" : [
                {
                    "attributes" : {
                        "POSITION" : 0,
                        "NORMAL" : 1
                    },
                    "indices" : 2,
                    "material" : 0
                }
            ]
        }
    ],
    "accessors" : [
        {
            "bufferView" : 0,
            "componentType" : 5126,
            "count" : 4756,
            "max" : [
                31.093000411987305,
                35.52080154418945,
                60.48722839355469
            ],
            "min" : [
                -31.093000411987305,
                -35.52080154418945,
                0.09139999747276306
            ],
            "type" : "VEC3"
        },
        {
            "bufferView" : 1,
            "componentType" : 5126,
            "count" : 4756,
            "type" : "VEC3"
        },
        {
            "bufferView" : 2,
            "componentType" : 5123,
            "count" : 27540,
            "type" : "SCALAR"
        }
    ],
    "bufferViews" : [
        {
            "buffer" : 0,
            "byteLength" : 57072,
            "byteOffset" : 0
        },
        {
            "buffer" : 0,
            "byteLength" : 57072,
            "byteOffset" : 57072
        },
        {
            "buffer" : 0,
            "byteLength" : 55080,
            "byteOffset" : 114144
        }
    ],
    "buffers" : [
        {
            "byteLength" : 169224,
            "uri" : "data:application/octet-stream;base64,"
        }
    ]
}
